<svg viewBox="0 0 100 100" xmlns="http://www.w3.org/2000/svg" width="128" height="128">
  <rect width="100" height="100" fill="#f5f0e8"/>
  
  <!-- body -->
  <rect x="15" y="32" width="70" height="52" rx="12" fill="#c4611a"/>
  <!-- lid -->
  <rect x="15" y="32" width="70" height="22" rx="12" fill="#8c3d0a"/>
  <!-- handle -->
  <path d="M35 32 Q35 16 50 16 Q65 16 65 32" stroke="#b89a7a" stroke-width="6" fill="none" stroke-linecap="round"/>
  <!-- lock -->
  <rect x="41" y="50" width="18" height="12" rx="5" fill="#d4bfa0"/>
  <rect x="44" y="52" width="12" height="7" rx="3" fill="#e07a3a"/>
  <!-- divider line -->
  <line x1="15" y1="54" x2="85" y2="54" stroke="#8c3d0a" stroke-width="2"/>
  <!-- eyes -->
  <circle cx="37" cy="70" r="6" fill="#f5f0e8"/>
  <circle cx="63" cy="70" r="6" fill="#f5f0e8"/>
  <circle cx="37" cy="70" r="3.5" fill="#2c2825"/>
  <circle cx="63" cy="70" r="3.5" fill="#2c2825"/>
  <circle cx="38.3" cy="68.7" r="1.3" fill="#f5f0e8"/>
  <circle cx="64.3" cy="68.7" r="1.3" fill="#f5f0e8"/>
  <!-- smile -->
  <path d="M37 78 Q50 85 63 78" stroke="#f5f0e8" stroke-width="2" fill="none" stroke-linecap="round"/>
  <!-- wheels -->
  <circle cx="28" cy="86" r="6" fill="#2c2825"/>
  <circle cx="28" cy="86" r="3.5" fill="#8c3d0a"/>
  <circle cx="72" cy="86" r="6" fill="#2c2825"/>
  <circle cx="72" cy="86" r="3.5" fill="#8c3d0a"/>

</svg>