<svg viewBox="0 0 100 100" xmlns="http://www.w3.org/2000/svg" width="128" height="128">
  <rect width="100" height="100" fill="#f5f0e8"/>
  
  <!-- dome -->
  <path d="M50 12 C28 12 14 30 14 56 L86 56 C86 30 72 12 50 12 Z" fill="#c4611a"/>
  <!-- shine -->
  <path d="M50 18 C36 18 24 32 22 52 L28 52 C30 36 38 24 50 24 Z" fill="#e07a3a" opacity=".35"/>
  <!-- face -->
  <circle cx="40" cy="42" r="6" fill="#f5f0e8"/>
  <circle cx="60" cy="42" r="6" fill="#f5f0e8"/>
  <circle cx="40" cy="42" r="3.5" fill="#2c2825"/>
  <circle cx="60" cy="42" r="3.5" fill="#2c2825"/>
  <circle cx="41.3" cy="40.7" r="1.3" fill="#f5f0e8"/>
  <circle cx="61.3" cy="40.7" r="1.3" fill="#f5f0e8"/>
  <!-- smile -->
  <path d="M39 51 Q50 58 61 51" stroke="#f5f0e8" stroke-width="2" fill="none" stroke-linecap="round"/>
  <!-- base plate -->
  <rect x="10" y="56" width="80" height="10" rx="5" fill="#8c3d0a"/>
  <!-- foot -->
  <rect x="22" y="66" width="56" height="7" rx="3.5" fill="#b89a7a"/>
  <!-- top button -->
  <circle cx="50" cy="12" r="6" fill="#d4bfa0"/>
  <circle cx="50" cy="12" r="3.5" fill="#b89a7a"/>
  <!-- ring lines -->
  <path d="M28 6 Q24 12 26 18" stroke="#d4bfa0" stroke-width="2" fill="none" stroke-linecap="round" opacity=".6"/>
  <path d="M72 6 Q76 12 74 18" stroke="#d4bfa0" stroke-width="2" fill="none" stroke-linecap="round" opacity=".6"/>

</svg>